{"title":"The Thin Man(1934)MP-4[DaScubaDude]","uid":12358543,"size":312833043,"categoryP":"video","categoryS":"movies","magnet":"?xt=urn:btih:f8ed48c735446987d851e124856e8846b6ed6b02&amp;dn=The+Thin+Man%281934%29MP-4%5BDaScubaDude%5D&amp;tr=udp%3A%2F%2Ftracker.openbittorrent.com%3A80&amp;tr=udp%3A%2F%2Fopen.demonii.com%3A1337&amp;tr=udp%3A%2F%2Ftracker.coppersurfer.tk%3A6969&amp;tr=udp%3A%2F%2Fexodus.desync.com%3A6969","seeders":0,"leechers":0,"uploader":"dascuba","files":1,"time":1441504282,"description":"The Thin Man (1934)\nNot Rated  |  91 min  |  Comedy, Crime, Mystery  |  25 May 1934 (USA)\n8.2 Your rating:   -/10   Ratings: 8.2/10 from 19,410 users   \nReviews: 126 user | 69 critic\nNick and Nora Charles, a former detective and his rich, playful wife, investigate a murder case mostly for the fun of it.\n\nDirector: W.S. Van Dyke\nWriters: Albert Hackett (screen play), Frances Goodrich (screen play), 1 more credit Â»\nStars: William Powell, Myrna Loy, Maureen O'Sullivan\n\nGeneral\nComplete name                            : C:The Thin ManThe Thin Man_Title17.m\nFormat                                   : MPEG-4\nFormat profile                           : Base Media\nCodec ID                                 : isom\nFile size                                : 298 MiB\nDuration                                 : 25mn 35s\nOverall bit rate mode                    : Constant\nOverall bit rate                         : 1 630 Kbps\nMovie name                               : The_Thin_Man\nGenre                                    : Science_Fiction\nWriting application                      : Lavf54.6.100\n\nVideo\nID                                       : 1\nFormat                                   : MPEG-4 Visual\nFormat settings, BVOP                    : No\nFormat settings, QPel                    : No\nFormat settings, GMC                     : No warppoints\nFormat settings, Matrix                  : Default (H.263)\nCodec ID                                 : 20\nDuration                                 : 25mn 35s\nBit rate mode                            : Constant\nBit rate                                 : 1 497 Kbps\nWidth                                    : 720 pixels\nHeight                                   : 540 pixels\nDisplay aspect ratio                     : 4:3\nFrame rate mode                          : Constant\nFrame rate                               : 29.970 fps\nColor space                              : YUV\nChroma subsampling                       : 4:2:0\nBit depth                                : 8 bits\nScan type                                : Progressive\nCompression mode                         : Lossy\nBits/(Pixel*Frame)                       : 0.128\nStream size                              : 274 MiB (92%)\nWriting library                          : Lavc54.23.100\n\nAudio\nID                                       : 2\nFormat                                   : MPEG Audio\nFormat version                           : Version 1\nFormat profile                           : Layer 3\nCodec ID                                 : 6B\nDuration                                 : 25mn 35s\nBit rate mode                            : Constant\nBit rate                                 : 128 Kbps\nChannel(s)                               : 2 channels\nSampling rate                            : 44.1 KHz\nCompression mode                         : Lossy\nStream size                              : 23.4 MiB (8%)\nWriting library                          : LAME3.99.5","torrent":{"xt":"urn:btih:f8ed48c735446987d851e124856e8846b6ed6b02","amp;dn":"The+Thin+Man%281934%29MP-4%5BDaScubaDude%5D","amp;tr":["udp%3A%2F%2Ftracker.openbittorrent.com%3A80","udp%3A%2F%2Fopen.demonii.com%3A1337","udp%3A%2F%2Ftracker.coppersurfer.tk%3A6969","udp%3A%2F%2Fexodus.desync.com%3A6969"],"infoHash":"f8ed48c735446987d851e124856e8846b6ed6b02","infoHashBuffer":{"type":"Buffer","data":[248,237,72,199,53,68,105,135,216,81,225,36,133,110,136,70,182,237,107,2]},"announce":[],"urlList":[]}}